# xmcd
#
# Track frame offsets: 
#        150
#        11700
#        25050
#        34425
#        45975
#        58875
#        69825
#        78225
#        90675
#        101625
#        114525
#
# Disc length: 1691 seconds
#
# Revision: 0
# Processed by: cddbd v1.5.2PL0 Copyright (c) Steve Scherf et al.
# Submitted via: ExactAudioCopyFreeDBPlugin 1.0
#
DISCID=8606990b
DTITLE=Tribute Show To Johnny Cash - Walk The Line
DYEAR=2016
DGENRE=Rock and Roll
TTITLE0=Get Rythm
TTITLE1=Folsom Prison Blues
TTITLE2=Country Boy
TTITLE3=Cry Cry Cry
TTITLE4=I Walk The Line
TTITLE5=Luther Played The Boogie
TTITLE6=I Got Stripes
TTITLE7=SO Doggone Lonesome
TTITLE8=Big River
TTITLE9=Ring O Fire
TTITLE10=It Ain´t Me Baby
EXTD=
EXTT0=
EXTT1=
EXTT2=
EXTT3=
EXTT4=
EXTT5=
EXTT6=
EXTT7=
EXTT8=
EXTT9=
EXTT10=
PLAYORDER=
